Season 10 Episode 3 of 8
With Alan Carr in the voiceover booth, the Geordie duo present more entertainment, surprises and competitions, and go head to head in their latest challenge. Another famous face takes part in hidden-camera sketch I'm a Celebrity Get Out of Me Ear, Britain's Got Talent 2010 champions Spelbound perform at the end of the show and, as usual, one member of the studio audience plays to take home the contents of a commercial break in Win the Ads.




General

Complete name                            : Ant.And.Decs.Saturday.Night.Takeaway.S10E03.WS.PDTV.x264-W33D.mp4

Format                                   : MPEG-4
Format profile                           : Base Media
Codec ID                                 : isom
File size                                : 491 MiB
Duration                                 : 59mn 24s
Overall bit rate mode                    : Variable
Overall bit rate                         : 1 154 Kbps
Writing application                      : Lavf52.64.2

Video
ID                                       : 1
Format                                   : AVC
Format/Info                              : Advanced Video Codec
Format profile                           : High@L3.1
Format settings, CABAC                   : Yes
Format settings, ReFrames                : 4 frames
Codec ID                                 : avc1
Codec ID/Info                            : Advanced Video Coding
Duration                                 : 59mn 24s
Bit rate                                 : 956 Kbps
Width                                    : 688 pixels
Height                                   : 384 pixels
Display aspect ratio                     : 16:9
Frame rate mode                          : Constant
Frame rate                               : 25.000 fps
Color space                              : YUV
Chroma subsampling                       : 4:2:0
Bit depth                                : 8 bits
Scan type                                : Progressive
Bits/(Pixel*Frame)                       : 0.145
Stream size                              : 406 MiB (83%)

Audio
ID                                       : 2
Format                                   : AAC
Format/Info                              : Advanced Audio Codec
Format profile                           : LC
Codec ID                                 : 40
Duration                                 : 59mn 24s
Duration_LastFrame                       : -21ms
Bit rate mode                            : Variable
Bit rate                                 : 192 Kbps
Channel(s)                               : 2 channels
Channel positions                        : Front: L R
Sampling rate                            : 48.0 KHz
Compression mode                         : Lossy
Delay relative to video                  : 200ms
Stream size                              : 81.6 MiB (17%) 


